<svg xmlns="http://www.w3.org/2000/svg" viewBox="0 0 100 100">
  <!-- Cat head -->
  <ellipse cx="50" cy="55" rx="35" ry="30" fill="#1a1a1a"/>
  <!-- Left ear -->
  <polygon points="20,35 15,5 40,25" fill="#1a1a1a"/>
  <polygon points="22,32 19,12 36,26" fill="#2a2a2a"/>
  <!-- Right ear -->
  <polygon points="80,35 85,5 60,25" fill="#1a1a1a"/>
  <polygon points="78,32 81,12 64,26" fill="#2a2a2a"/>
  <!-- Left eye -->
  <ellipse cx="35" cy="50" rx="8" ry="10" fill="#ffd700"/>
  <ellipse cx="35" cy="50" rx="3" ry="6" fill="#1a1a1a"/>
  <!-- Right eye -->
  <ellipse cx="65" cy="50" rx="8" ry="10" fill="#ffd700"/>
  <ellipse cx="65" cy="50" rx="3" ry="6" fill="#1a1a1a"/>
  <!-- Nose -->
  <polygon points="50,62 46,58 54,58" fill="#3a3a3a"/>
  <!-- Mouth -->
  <path d="M50,62 Q50,68 44,70" stroke="#3a3a3a" stroke-width="2" fill="none"/>
  <path d="M50,62 Q50,68 56,70" stroke="#3a3a3a" stroke-width="2" fill="none"/>
</svg>
